# xmcd CD database file
#
# Track frame offsets:
#	150
#	18620
#	35797
#	54985
#	73455
#	90632
#	121070
#
# Disc length: 4440 seconds
#
# Revision: 0
# Processed by: cddbd v1.5.1PL2 Copyright (c) Steve Scherf et al.
# Submitted via: CDex 1.51
#
DISCID=5f115607
DTITLE=hiro - ヒーロー☆
DYEAR=2006
DGENRE=JPop
TTITLE0=ヒーロー☆
TTITLE1=My Crazy Days
TTITLE2=Spring
TTITLE3=ヒーロー☆ (Instrumental)
TTITLE4=My Crazy Days (Instrumental)
TTITLE5=Spring (Instrumental)
TTITLE6=CCCD
EXTD=YEAR: 2006
EXTT0=
EXTT1=
EXTT2=
EXTT3=
EXTT4=
EXTT5=
EXTT6=
PLAYORDER=
